<?xml version="1.0" encoding="UTF-8" standalone="no"?>
<!-- Created with Inkscape (http://www.inkscape.org/) -->

<svg
   width="1500"
   height="1100"
   viewBox="0 0 396.87499 291.04166"
   version="1.1"
   id="svg5"
   inkscape:version="1.1 (c68e22c387, 2021-05-23)"
   sodipodi:docname="crash-landing-logo-2-exploded.svg"
   xmlns:inkscape="http://www.inkscape.org/namespaces/inkscape"
   xmlns:sodipodi="http://sodipodi.sourceforge.net/DTD/sodipodi-0.dtd"
   xmlns="http://www.w3.org/2000/svg"
   xmlns:svg="http://www.w3.org/2000/svg">
  <sodipodi:namedview
     id="namedview7"
     pagecolor="#ffffff"
     bordercolor="#000000"
     borderopacity="1"
     inkscape:pageshadow="0"
     inkscape:pageopacity="0"
     inkscape:pagecheckerboard="0"
     inkscape:document-units="px"
     showgrid="false"
     width="1500px"
     inkscape:zoom="0.26205012"
     inkscape:cx="139.28633"
     inkscape:cy="1058.9577"
     inkscape:window-width="1920"
     inkscape:window-height="1017"
     inkscape:window-x="1016"
     inkscape:window-y="1078"
     inkscape:window-maximized="1"
     inkscape:current-layer="layer1"
     units="px"
     showguides="true"
     inkscape:guide-bbox="true"
     objecttolerance="20"
     guidetolerance="20"
     height="1499px">
    <sodipodi:guide
       position="0,334.04807"
       orientation="-1,0"
       id="guide1781"
       inkscape:label=""
       inkscape:locked="false"
       inkscape:color="rgb(0,0,255)" />
    <sodipodi:guide
       position="198.4375,48.471153"
       orientation="-1,0"
       id="guide1799"
       inkscape:label=""
       inkscape:locked="false"
       inkscape:color="rgb(0,0,255)" />
  </sodipodi:namedview>
  <defs
     id="defs2" />
  <g
     inkscape:label="Layer 1"
     inkscape:groupmode="layer"
     id="layer1">
    <path
       style="fill:#aa0000;fill-opacity:1;stroke:none;stroke-width:0.715308px;stroke-linecap:butt;stroke-linejoin:miter;stroke-opacity:1"
       d="m 235.13153,213.04717 -6.91801,-2.85055 0.29237,-11.40557 8.52691,-1.42566 6.8669,7.22325 1.12586,7.79405 z"
       id="path7869"
       sodipodi:nodetypes="ccccccc" />
    <path
       style="fill:#aa0000;fill-opacity:1;stroke:none;stroke-width:0.398584px;stroke-linecap:butt;stroke-linejoin:miter;stroke-opacity:1"
       d="m 251.74597,166.74947 -10.45703,4.94331 -1.3309,7.6051 4.37295,3.42229 9.69651,-1.521 3.23217,-5.13344 -2.0914,-6.08411 z"
       id="path8020" />
    <path
       style="fill:#aa0000;fill-opacity:1;stroke:none;stroke-width:0.398584px;stroke-linecap:butt;stroke-linejoin:miter;stroke-opacity:1"
       d="m 276.46262,190.89569 0.38024,-9.50639 7.98535,-3.42233 9.12615,6.46435 -6.84461,5.70387 -5.70382,2.2815 z"
       id="path8410" />
    <path
       style="fill:#aa0000;fill-opacity:1;stroke:none;stroke-width:0.398584px;stroke-linecap:butt;stroke-linejoin:miter;stroke-opacity:1"
       d="m 266.31102,172.44565 3.17649,-1.89337 4.90115,1.54016 -3.28786,3.82165 -3.86779,-0.5147 z"
       id="path8591"
       sodipodi:nodetypes="cccccc" />
    <path
       style="fill:#aa0000;fill-opacity:1;stroke:none;stroke-width:0.267282px;stroke-linecap:butt;stroke-linejoin:miter;stroke-opacity:1"
       d="m 268.39459,160.10221 -1.15832,-4.21002 2.5483,-3.36806 1.85331,3.36806 -1.62164,1.68401 z"
       id="path8593" />
    <path
       style="fill:#aa0000;fill-opacity:1;stroke:none;stroke-width:0.398584px;stroke-linecap:butt;stroke-linejoin:miter;stroke-opacity:1"
       d="m 288.54766,162.75092 1.20997,-2.9577 2.15105,0.80667 0.67221,1.34438 -1.34443,1.20997 z"
       id="path9987" />
    <path
       style="fill:#aa0000;fill-opacity:1;stroke:none;stroke-width:0.398584px;stroke-linecap:butt;stroke-linejoin:miter;stroke-opacity:1"
       d="m 301.18509,177.80828 0.80667,-2.41993 h 1.7477 l 1.34443,1.47883 -2.15108,2.15104 z"
       id="path9989" />
    <g
       aria-label="LANDING"
       transform="matrix(1.314498,0,0,1.314498,-62.425079,-10.088698)"
       id="flowRoot3713-9"
       style="font-size:40px;line-height:1.25;letter-spacing:0px;word-spacing:0px;fill:#ffffff">
      <path
         d="m 75.229069,178.11093 h 5.581565 v 33.48939 h 19.535476 v 5.42056 H 75.229069 Z"
         style="font-size:53.6689px;font-family:'Reem Kufi';-inkscape-font-specification:'Reem Kufi';fill:#000000"
         id="path897" />
      <path
         d="m 104.74686,217.02088 17.12038,-40.52002 h 0.32201 l 17.12038,40.52002 h -6.49393 l -3.86416,-9.76774 H 114.3536 l -4.02517,9.76774 z m 11.53882,-14.59794 h 10.78744 l -5.25955,-13.41722 z"
         style="font-size:53.6689px;font-family:'Reem Kufi';-inkscape-font-specification:'Reem Kufi';fill:#000000"
         id="path899" />
      <path
         d="m 180.20527,218.36261 -28.33718,-28.28351 0.10734,26.94178 h -5.63523 v -40.14433 h 0.21467 l 28.33718,28.65919 -0.10733,-27.42481 h 5.58156 v 40.25168 z"
         style="font-size:53.6689px;font-family:'Reem Kufi';-inkscape-font-specification:'Reem Kufi';fill:#000000"
         id="path901" />
      <path
         d="m 191.42199,217.02088 v -38.90995 h 10.78744 q 5.79625,0 9.82141,1.77108 4.02517,1.7174 6.54761,4.66919 2.52244,2.89812 3.64948,6.44027 1.18072,3.54214 1.18072,7.08429 0,4.34718 -1.5564,7.88933 -1.50273,3.48848 -4.23984,5.95725 -2.68345,2.46877 -6.17193,3.81049 -3.48847,1.28805 -7.35263,1.28805 z m 5.58156,-5.42056 h 6.01092 q 4.23984,0 7.51364,-1.61006 3.27381,-1.61007 5.15222,-4.72287 1.93208,-3.11279 1.93208,-7.56731 0,-3.64949 -1.23439,-6.27926 -1.18071,-2.68345 -3.16646,-4.40085 -1.98575,-1.77107 -4.45452,-2.62978 -2.46877,-0.8587 -5.04488,-0.8587 h -6.70861 z"
         style="font-size:53.6689px;font-family:'Reem Kufi';-inkscape-font-specification:'Reem Kufi';fill:#000000"
         id="path903" />
      <path
         d="m 231.99559,178.11093 h 5.58157 v 38.90995 h -5.58157 z"
         style="font-size:53.6689px;font-family:'Reem Kufi';-inkscape-font-specification:'Reem Kufi';fill:#000000"
         id="path905" />
      <path
         d="m 282.498,218.36261 -28.33718,-28.28351 0.10734,26.94178 h -5.63524 v -40.14433 h 0.21468 l 28.33718,28.65919 -0.10734,-27.42481 h 5.58157 v 40.25168 z"
         style="font-size:53.6689px;font-family:'Reem Kufi';-inkscape-font-specification:'Reem Kufi';fill:#000000"
         id="path907" />
      <path
         d="m 324.35965,213.58607 q -1.07338,0.96604 -3.2738,1.87842 -2.14676,0.8587 -4.72286,1.44906 -2.52244,0.53668 -4.72287,0.53668 -6.22559,0 -10.78745,-2.46876 -4.56185,-2.52244 -7.08429,-6.81595 -2.46877,-4.29352 -2.46877,-9.76774 0,-4.99121 1.5564,-8.85537 1.61006,-3.86416 4.40085,-6.49394 2.79078,-2.62978 6.33293,-3.9715 3.59581,-1.39539 7.62098,-1.39539 3.48848,0 6.44027,0.80503 2.95179,0.80504 5.15221,2.03942 l -1.87841,5.20589 q -1.07338,-0.59036 -2.68344,-1.12705 -1.5564,-0.59036 -3.27381,-0.91237 -1.66373,-0.37569 -3.05912,-0.37569 -4.50819,0 -7.83566,1.77108 -3.32747,1.77107 -5.15222,5.04487 -1.82474,3.27381 -1.82474,7.782 0,4.1325 1.82474,7.29897 1.87841,3.11279 5.15222,4.88387 3.32747,1.77107 7.67465,1.77107 1.93208,0 3.75682,-0.37568 1.87841,-0.37569 3.16647,-1.12705 v -7.19163 h -7.56732 v -5.42056 h 13.25622 z"
         style="font-size:53.6689px;font-family:'Reem Kufi';-inkscape-font-specification:'Reem Kufi';fill:#000000"
         id="path909" />
    </g>
    <g
       aria-label="CRASH"
       transform="matrix(0.87807389,0.97820817,-0.97820817,0.87807389,172.8331,-219.81367)"
       id="flowRoot3713-9-5"
       style="font-size:40px;line-height:1.25;letter-spacing:0px;word-spacing:0px;fill:#ffffff">
      <path
         d="m 103.88826,214.06909 q -0.91237,0.59036 -2.62978,1.44906 -1.663731,0.80504 -3.971494,1.3954 -2.254094,0.59035 -4.937539,0.53668 -4.561856,-0.0537 -8.157672,-1.61006 -3.595817,-1.5564 -6.171924,-4.23985 -2.522438,-2.73711 -3.86416,-6.22559 -1.341723,-3.54215 -1.341723,-7.51364 0,-4.40085 1.395391,-8.05034 1.449061,-3.70315 4.025168,-6.3866 2.576107,-2.73711 6.064586,-4.23984 3.542147,-1.50273 7.728321,-1.50273 3.542147,0 6.440268,0.96604 2.898118,0.96604 4.883868,2.20043 l -2.25409,5.25955 q -1.5564,-1.07338 -3.864163,-2.03942 -2.254093,-0.96604 -5.044876,-0.96604 -3.703154,0 -6.762282,1.93208 -3.059127,1.93208 -4.937538,5.20588 -1.824743,3.27381 -1.824743,7.35264 0,4.13251 1.663736,7.40631 1.717405,3.2738 4.830201,5.15221 3.112796,1.87842 7.29897,1.87842 3.005459,0 5.259552,-0.91238 2.307763,-0.91237 3.756823,-2.09308 z"
         style="font-size:53.6689px;font-family:'Reem Kufi';-inkscape-font-specification:'Reem Kufi';fill:#000000"
         id="path886" />
      <path
         d="m 123.04797,178.11093 q 4.07884,0 7.2453,1.44906 3.16647,1.39539 4.93754,4.13251 1.82474,2.73711 1.82474,6.65494 0,3.32747 -1.44906,6.49394 -1.44906,3.11279 -4.93754,4.77653 l 9.66041,15.40297 h -6.54761 l -9.01638,-14.00758 q -0.42935,0 -0.96604,0 h -5.74257 v 14.00758 h -5.58156 v -38.90995 z m 0.64403,19.48181 q 3.00545,0 4.61552,-1.12704 1.66374,-1.18072 2.30776,-2.79079 0.64403,-1.66373 0.64403,-3.11279 0,-1.44906 -0.69769,-3.05913 -0.64403,-1.66374 -2.2541,-2.79078 -1.5564,-1.18072 -4.29351,-1.18072 h -5.95725 v 14.06125 z"
         style="font-size:53.6689px;font-family:'Reem Kufi';-inkscape-font-specification:'Reem Kufi';fill:#000000"
         id="path888" />
      <path
         d="m 144.08615,217.02088 17.12038,-40.52002 h 0.32201 l 17.12038,40.52002 h -6.49394 l -3.86416,-9.76774 h -14.59794 l -4.02517,9.76774 z m 11.53881,-14.59794 h 10.78745 l -5.25955,-13.41722 z"
         style="font-size:53.6689px;font-family:'Reem Kufi';-inkscape-font-specification:'Reem Kufi';fill:#000000"
         id="path890" />
      <path
         d="m 205.91267,185.46357 q -2.03942,-1.07338 -4.40085,-1.82474 -2.36143,-0.75137 -4.56186,-0.75137 -3.05913,0 -4.8302,1.39539 -1.77107,1.34173 -1.77107,3.75683 0,1.7174 1.18071,2.95179 1.18072,1.18071 3.05913,2.14675 1.87841,0.91237 3.9715,1.66374 2.4151,0.91237 4.66919,2.20042 2.2541,1.28806 3.70316,3.54215 1.44906,2.20043 1.44906,5.84991 0,3.1128 -1.5564,5.63524 -1.5564,2.46877 -4.45452,3.97149 -2.84445,1.44906 -6.86962,1.44906 -3.75682,0 -7.13796,-1.18071 -3.32747,-1.18072 -5.74257,-2.89812 l 2.52243,-4.45452 q 1.87842,1.44906 4.61553,2.52244 2.73711,1.07338 5.20588,1.07338 1.82474,0 3.54215,-0.59036 1.7174,-0.64403 2.84445,-1.98575 1.18072,-1.34172 1.18072,-3.54215 0,-1.82474 -1.01971,-3.11279 -1.01971,-1.28806 -2.68345,-2.20043 -1.61006,-0.91237 -3.48848,-1.61007 -1.82474,-0.69769 -3.75682,-1.50273 -1.87841,-0.8587 -3.48848,-2.09308 -1.55639,-1.23439 -2.5761,-3.00546 -0.96604,-1.82474 -0.96604,-4.40085 0,-3.1128 1.44906,-5.42056 1.50273,-2.36143 4.07883,-3.64949 2.62978,-1.34172 6.06459,-1.50272 3.86416,0 6.76228,0.96604 2.89812,0.91237 5.09854,2.25409 z"
         style="font-size:53.6689px;font-family:'Reem Kufi';-inkscape-font-specification:'Reem Kufi';fill:#000000"
         id="path892" />
      <path
         d="m 247.98902,178.11093 v 38.90995 h -5.58157 v -16.85203 h -19.91116 v 16.85203 h -5.58157 v -38.90995 h 5.58157 v 16.69103 h 19.91116 v -16.69103 z"
         style="font-size:53.6689px;font-family:'Reem Kufi';-inkscape-font-specification:'Reem Kufi';fill:#000000"
         id="path894" />
    </g>
    <path
       style="fill:#bd3939;fill-opacity:1;stroke:none;stroke-width:0.398584px;stroke-linecap:butt;stroke-linejoin:miter;stroke-opacity:1"
       d="m 254.73585,196.52464 2.41994,-3.22657 6.45314,4.57096 -2.55437,0.60501 -4.50375,-0.73946 z"
       id="path5178" />
    <path
       style="fill:#bd3939;fill-opacity:1;stroke:none;stroke-width:0.59699px;stroke-linecap:butt;stroke-linejoin:miter;stroke-opacity:1"
       d="m 298.94666,155.21774 -0.19579,-2.48376 2.93838,0.54331 -0.97946,1.39715 z"
       id="path5246" />
  </g>
</svg>
