<?xml version="1.0" encoding="UTF-8" standalone="no"?>
<!-- Created with Inkscape (http://www.inkscape.org/) -->

<svg
   width="1400"
   height="800"
   viewBox="0 0 370.41665 211.66667"
   version="1.1"
   id="svg8"
   inkscape:version="1.1 (c68e22c387, 2021-05-23)"
   sodipodi:docname="spacebook-logo-stacked-light-exploded.svg"
   inkscape:export-filename="C:\Users\Kenny\Desktop\MyDocuments\Projects\Python\PDSCJ2020\spacebook-logo-light.png"
   inkscape:export-xdpi="600"
   inkscape:export-ydpi="600"
   xmlns:inkscape="http://www.inkscape.org/namespaces/inkscape"
   xmlns:sodipodi="http://sodipodi.sourceforge.net/DTD/sodipodi-0.dtd"
   xmlns="http://www.w3.org/2000/svg"
   xmlns:svg="http://www.w3.org/2000/svg"
   xmlns:rdf="http://www.w3.org/1999/02/22-rdf-syntax-ns#"
   xmlns:cc="http://creativecommons.org/ns#"
   xmlns:dc="http://purl.org/dc/elements/1.1/">
  <defs
     id="defs2" />
  <sodipodi:namedview
     id="base"
     pagecolor="#ffffff"
     bordercolor="#666666"
     borderopacity="1.0"
     inkscape:pageopacity="0.0"
     inkscape:pageshadow="2"
     inkscape:zoom="0.49497475"
     inkscape:cx="619.22351"
     inkscape:cy="346.48232"
     inkscape:document-units="px"
     inkscape:current-layer="flowRoot3713"
     showgrid="false"
     units="px"
     inkscape:window-width="1920"
     inkscape:window-height="1017"
     inkscape:window-x="1016"
     inkscape:window-y="1078"
     inkscape:window-maximized="1"
     fit-margin-top="0"
     fit-margin-left="0"
     fit-margin-right="0"
     fit-margin-bottom="0"
     inkscape:pagecheckerboard="0"
     width="1400px" />
  <metadata
     id="metadata5">
    <rdf:RDF>
      <cc:Work
         rdf:about="">
        <dc:format>image/svg+xml</dc:format>
        <dc:type
           rdf:resource="http://purl.org/dc/dcmitype/StillImage" />
      </cc:Work>
    </rdf:RDF>
  </metadata>
  <g
     inkscape:groupmode="layer"
     id="layer2"
     inkscape:label="Layer 2"
     transform="translate(-12.294398,-29.730473)" />
  <g
     inkscape:label="Layer 1"
     inkscape:groupmode="layer"
     id="layer1"
     transform="translate(-12.294398,-29.730473)">
    <g
       aria-label="spacebook"
       transform="matrix(1.314498,0,0,1.314498,-60.783941,-67.729145)"
       id="flowRoot3713"
       style="font-size:40px;line-height:1.25;letter-spacing:0px;word-spacing:0px;fill:#ffffff">
      <path
         d="m 80.434952,217.5039 q -2.46877,0 -4.722863,-0.8587 -2.254094,-0.91237 -3.810492,-2.57611 l 2.307762,-3.11279 q 1.395392,1.34172 2.898121,2.03942 1.502729,0.69769 2.898121,0.69769 1.556398,0 2.737113,-0.59036 1.180716,-0.64402 1.180716,-2.09308 0,-1.18072 -0.805033,-1.82475 -0.751365,-0.64402 -1.932081,-1.07337 -1.180715,-0.42935 -2.522438,-0.80504 -5.742572,-1.87841 -5.742572,-6.60127 0,-1.71741 0.858702,-3.32747 0.912372,-1.61007 2.683445,-2.57611 1.824743,-1.01971 4.561857,-1.01971 2.361431,0 4.239843,0.59036 1.878411,0.53669 3.488478,1.87841 l -2.093087,3.2738 q -0.96604,-0.96604 -2.307763,-1.44906 -1.288053,-0.53669 -2.361431,-0.59036 -1.44906,0 -2.522438,0.6977 -1.073378,0.64403 -1.073378,1.77107 0,1.18072 0.751364,1.82475 0.751365,0.64402 1.932081,1.07337 1.234384,0.37569 2.468769,0.80504 2.468769,0.80503 4.078836,2.20042 1.663736,1.39539 1.663736,4.07884 0,2.03942 -0.96604,3.75682 -0.96604,1.71741 -2.951789,2.79078 -1.932081,1.01971 -4.937539,1.01971 z"
         style="font-size:53.6689px;font-family:'Reem Kufi';-inkscape-font-specification:'Reem Kufi';fill:#000000"
         id="path831" />
      <path
         d="m 109.57714,217.55757 q -2.36143,0 -4.50819,-0.96604 -2.14675,-0.96604 -3.48848,-2.73711 v 13.95391 H 96.159916 V 194.2116 h 4.669194 l 0.48302,3.64949 q 1.61007,-1.82475 3.9715,-3.00546 2.36143,-1.18072 5.31322,-1.18072 3.16646,0 5.63523,1.50273 2.52244,1.50273 3.9715,4.23984 1.44906,2.68345 1.44906,6.33293 0,3.64949 -1.61006,6.33293 -1.5564,2.62978 -4.29352,4.07884 -2.68344,1.39539 -6.17192,1.39539 z m -1.07338,-4.29351 q 2.09309,0 3.81049,-0.96604 1.77108,-0.96604 2.79079,-2.62978 1.07338,-1.7174 1.07338,-3.86416 0,-2.20042 -0.96605,-3.91783 -0.96604,-1.7174 -2.62977,-2.68344 -1.66374,-0.96604 -3.70316,-0.96604 -2.79078,0 -4.72286,1.50273 -1.87841,1.50273 -2.57611,3.9715 v 4.02516 q 0.42936,2.4151 2.36144,3.9715 1.93208,1.5564 4.56185,1.5564 z"
         style="font-size:53.6689px;font-family:'Reem Kufi';-inkscape-font-specification:'Reem Kufi';fill:#000000"
         id="path833" />
      <path
         d="m 137.64595,217.55757 q -3.16646,0 -5.74257,-1.34172 -2.57611,-1.34172 -4.07883,-3.91783 -1.50273,-2.62978 -1.50273,-6.49394 0,-3.75682 1.55639,-6.44026 1.61007,-2.73712 4.18618,-4.18618 2.57611,-1.50273 5.6889,-1.50273 3.1128,0 5.15222,1.28806 2.03941,1.23438 3.22013,3.00545 l 0.37568,-3.38114 h 4.99121 v 22.4336 h -5.42056 v -3.54214 q -0.59036,0.75136 -1.77107,1.7174 -1.18072,0.96604 -2.84445,1.66374 -1.66374,0.69769 -3.8105,0.69769 z m 1.44906,-4.45452 q 2.62978,0 4.50819,-1.39539 1.87841,-1.44906 2.46877,-3.91783 v -4.61552 q -0.64403,-2.20043 -2.62978,-3.64949 -1.93208,-1.44906 -4.50818,-1.44906 -1.93208,0 -3.54215,0.96604 -1.61007,0.91237 -2.57611,2.62978 -0.96604,1.66373 -0.96604,3.86416 0,2.14676 0.96604,3.86416 1.01971,1.7174 2.68345,2.73711 1.66373,0.96604 3.59581,0.96604 z"
         style="font-size:53.6689px;font-family:'Reem Kufi';-inkscape-font-specification:'Reem Kufi';fill:#000000"
         id="path835" />
      <path
         d="m 178.32695,214.9278 q -1.5564,1.23438 -3.64948,1.93208 -2.09309,0.69769 -4.23985,0.69769 -3.64948,0 -6.49393,-1.44906 -2.79079,-1.44906 -4.34718,-4.07883 -1.5564,-2.62978 -1.5564,-6.2256 0,-3.59581 1.66373,-6.22559 1.66374,-2.68344 4.34719,-4.07884 2.73711,-1.44906 5.84991,-1.44906 2.79078,0 4.88386,0.75137 2.14676,0.75136 3.70316,2.09309 l -2.68345,3.48847 q -0.91237,-0.75136 -2.30776,-1.34172 -1.39539,-0.59036 -3.16646,-0.59036 -1.93208,0 -3.48848,0.96604 -1.5564,0.96604 -2.46877,2.62978 -0.91237,1.66374 -0.91237,3.75682 0,2.03942 0.91237,3.70316 0.96604,1.66373 2.62977,2.62977 1.71741,0.96604 3.86417,0.96604 1.39539,0 2.5761,-0.37568 1.23439,-0.42935 2.14676,-1.18071 z"
         style="font-size:53.6689px;font-family:'Reem Kufi';-inkscape-font-specification:'Reem Kufi';fill:#000000"
         id="path837" />
      <path
         d="m 195.17895,217.55757 q -3.86417,0 -6.65495,-1.50273 -2.79078,-1.55639 -4.29351,-4.23984 -1.50273,-2.73711 -1.50273,-6.17192 0,-3.32747 1.66374,-6.01092 1.7174,-2.73711 4.56185,-4.34718 2.84445,-1.61007 6.33293,-1.61007 4.50819,0 7.45998,2.62978 3.00546,2.57611 4.02517,7.29897 l -17.54973,6.06458 q 0.96604,1.5564 2.52244,2.4151 1.61006,0.85871 3.54214,0.85871 1.44906,0 2.79079,-0.48302 1.34172,-0.48302 2.52243,-1.39539 l 2.46877,4.02516 q -1.7174,1.12705 -3.81049,1.82475 -2.09309,0.64402 -4.07883,0.64402 z m -7.0843,-12.23651 q 0,0.59036 0.0537,1.12705 l 12.50485,-4.56186 q -0.69769,-1.55639 -2.09308,-2.73711 -1.34173,-1.18072 -3.64949,-1.18072 -3.00546,0 -4.93754,2.09309 -1.87841,2.03942 -1.87841,5.25955 z"
         style="font-size:53.6689px;font-family:'Reem Kufi';-inkscape-font-specification:'Reem Kufi';fill:#000000"
         id="path839" />
      <path
         d="m 226.73623,217.55757 q -2.79078,0 -4.93754,-1.01971 -2.14675,-1.07337 -3.54214,-2.79078 v 3.2738 h -5.42056 v -41.70073 h 5.42056 v 22.00425 q 1.34172,-1.61007 3.75682,-2.62978 2.4151,-1.01971 5.42056,-1.01971 2.95179,0 5.42056,1.44906 2.52244,1.39539 3.9715,4.02517 1.50273,2.62978 1.50273,6.27926 0,3.81049 -1.61007,6.54761 -1.61007,2.68344 -4.23984,4.1325 -2.62978,1.44906 -5.74258,1.44906 z m -1.18071,-4.56185 q 2.09308,0 3.70315,-0.96604 1.66374,-1.01971 2.62978,-2.73712 0.96604,-1.7174 0.96604,-3.86416 0,-2.14675 -0.96604,-3.81049 -0.96604,-1.66374 -2.62978,-2.62978 -1.66373,-1.01971 -3.70315,-1.01971 -2.68345,0 -4.6692,1.3954 -1.98575,1.39539 -2.62977,3.70315 v 4.72286 q 0.69769,2.2541 2.5761,3.75683 1.93209,1.44906 4.72287,1.44906 z"
         style="font-size:53.6689px;font-family:'Reem Kufi';-inkscape-font-specification:'Reem Kufi';fill:#000000"
         id="path841" />
      <path
         d="m 242.99789,205.58941 q 0,-3.38114 1.61006,-6.06459 1.61007,-2.68344 4.40085,-4.23984 2.84446,-1.61007 6.54761,-1.61007 3.70315,0 6.44027,1.61007 2.79078,1.5564 4.29351,4.23984 1.5564,2.68345 1.5564,6.06459 0,3.38114 -1.5564,6.11825 -1.5564,2.68345 -4.34718,4.29351 -2.79078,1.5564 -6.49394,1.5564 -3.59581,0 -6.3866,-1.44906 -2.79078,-1.44906 -4.45452,-4.1325 -1.61006,-2.68345 -1.61006,-6.3866 z m 5.47422,0.0537 q 0,2.14675 0.91238,3.81049 0.91237,1.66373 2.46877,2.68344 1.61006,0.96604 3.54214,0.96604 3.05913,0 4.99121,-2.14675 1.98575,-2.14676 1.98575,-5.31322 0,-3.16647 -1.98575,-5.31322 -1.93208,-2.20043 -4.99121,-2.20043 -1.98575,0 -3.54214,1.01971 -1.5564,1.01971 -2.46877,2.73711 -0.91238,1.71741 -0.91238,3.75683 z"
         style="font-size:53.6689px;font-family:'Reem Kufi';-inkscape-font-specification:'Reem Kufi';fill:#000000"
         id="path843" />
      <path
         d="m 272.46211,205.58941 q 0,-3.38114 1.61006,-6.06459 1.61007,-2.68344 4.40085,-4.23984 2.84445,-1.61007 6.54761,-1.61007 3.70315,0 6.44027,1.61007 2.79078,1.5564 4.29351,4.23984 1.5564,2.68345 1.5564,6.06459 0,3.38114 -1.5564,6.11825 -1.5564,2.68345 -4.34718,4.29351 -2.79079,1.5564 -6.49394,1.5564 -3.59582,0 -6.3866,-1.44906 -2.79078,-1.44906 -4.45452,-4.1325 -1.61006,-2.68345 -1.61006,-6.3866 z m 5.47422,0.0537 q 0,2.14675 0.91237,3.81049 0.91238,1.66373 2.46877,2.68344 1.61007,0.96604 3.54215,0.96604 3.05913,0 4.99121,-2.14675 1.98575,-2.14676 1.98575,-5.31322 0,-3.16647 -1.98575,-5.31322 -1.93208,-2.20043 -4.99121,-2.20043 -1.98575,0 -3.54215,1.01971 -1.55639,1.01971 -2.46877,2.73711 -0.91237,1.71741 -0.91237,3.75683 z"
         style="font-size:53.6689px;font-family:'Reem Kufi';-inkscape-font-specification:'Reem Kufi';fill:#000000"
         id="path845" />
      <path
         d="m 303.8584,217.02088 v -41.70073 h 5.42056 v 27.80049 l 11.43148,-9.01638 3.2738,2.89812 -8.21134,6.54761 9.28472,13.47089 h -6.33293 l -6.65494,-10.5191 -2.79079,2.20042 v 8.31868 z"
         style="font-size:53.6689px;font-family:'Reem Kufi';-inkscape-font-specification:'Reem Kufi';fill:#000000"
         id="path847" />
    </g>
    <g
       id="g846"
       transform="matrix(1.5537341,0,0,1.5537341,-192.71156,-16.539966)">
      <circle
         style="opacity:1;fill:#aa0000;fill-opacity:1;stroke:none;stroke-width:0.415192"
         id="path3724"
         cx="211.67746"
         cy="84.787994"
         r="27.261492" />
      <circle
         style="opacity:1;fill:#ac9393;fill-opacity:1;stroke:none;stroke-width:0.264583"
         id="path3726"
         cx="171.98795"
         cy="62.203716"
         r="6.0135641" />
      <circle
         style="opacity:1;fill:#ac9393;fill-opacity:1;stroke:none;stroke-width:0.133872"
         id="path3726-2"
         cx="168.61618"
         cy="46.332069"
         r="3.0427084" />
    </g>
  </g>
</svg>
