<?xml version="1.0" encoding="UTF-8" standalone="no"?>
<!-- Created with Inkscape (http://www.inkscape.org/) -->

<svg
   width="1500"
   height="1500"
   viewBox="0 0 396.87499 396.87499"
   version="1.1"
   id="svg5"
   inkscape:version="1.1 (c68e22c387, 2021-05-23)"
   sodipodi:docname="crash-landing-logo-exploded.svg"
   xmlns:inkscape="http://www.inkscape.org/namespaces/inkscape"
   xmlns:sodipodi="http://sodipodi.sourceforge.net/DTD/sodipodi-0.dtd"
   xmlns="http://www.w3.org/2000/svg"
   xmlns:svg="http://www.w3.org/2000/svg">
  <sodipodi:namedview
     id="namedview7"
     pagecolor="#ffffff"
     bordercolor="#000000"
     borderopacity="1"
     inkscape:pageshadow="0"
     inkscape:pageopacity="0"
     inkscape:pagecheckerboard="0"
     inkscape:document-units="mm"
     showgrid="false"
     width="1500px"
     inkscape:zoom="0.37059484"
     inkscape:cx="330.54967"
     inkscape:cy="1021.331"
     inkscape:window-width="1920"
     inkscape:window-height="1017"
     inkscape:window-x="1016"
     inkscape:window-y="1078"
     inkscape:window-maximized="1"
     inkscape:current-layer="layer1"
     units="px"
     showguides="true"
     inkscape:guide-bbox="true"
     objecttolerance="20"
     guidetolerance="20">
    <sodipodi:guide
       position="0,334.04807"
       orientation="-1,0"
       id="guide1781"
       inkscape:label=""
       inkscape:locked="false"
       inkscape:color="rgb(0,0,255)" />
    <sodipodi:guide
       position="198.4375,48.471153"
       orientation="-1,0"
       id="guide1799"
       inkscape:label=""
       inkscape:locked="false"
       inkscape:color="rgb(0,0,255)" />
  </sodipodi:namedview>
  <defs
     id="defs2" />
  <g
     inkscape:label="Layer 1"
     inkscape:groupmode="layer"
     id="layer1">
    <g
       aria-label="crashLANDING"
       transform="matrix(0.45836986,0.90812013,-0.90812013,0.45836986,167.37018,-152.72504)"
       id="flowRoot3713"
       style="font-size:40px;line-height:1.25;letter-spacing:0px;word-spacing:0px;fill:#ffffff">
      <path
         d="m 92.295779,214.9278 q -1.556399,1.23438 -3.649486,1.93208 -2.093087,0.69769 -4.239843,0.69769 -3.649485,0 -6.493936,-1.44906 -2.790783,-1.44906 -4.347181,-4.07883 -1.556398,-2.62978 -1.556398,-6.2256 0,-3.59581 1.663735,-6.22559 1.663736,-2.68344 4.347181,-4.07884 2.737114,-1.44906 5.84991,-1.44906 2.790783,0 4.88387,0.75137 2.146756,0.75136 3.703154,2.09309 l -2.683445,3.48847 q -0.912371,-0.75136 -2.307762,-1.34172 -1.395392,-0.59036 -3.166465,-0.59036 -1.932081,0 -3.488479,0.96604 -1.556398,0.96604 -2.468769,2.62978 -0.912372,1.66374 -0.912372,3.75682 0,2.03942 0.912372,3.70316 0.96604,1.66373 2.629776,2.62977 1.717405,0.96604 3.864161,0.96604 1.395391,0 2.576107,-0.37568 1.234384,-0.42935 2.146756,-1.18071 z"
         style="font-size:53.6689px;font-family:'Reem Kufi';-inkscape-font-specification:'Reem Kufi';fill:#000000"
         id="path10354" />
      <path
         d="m 103.45886,194.58728 0.42935,5.31322 q 0.96604,-1.93208 2.57611,-3.32747 1.61007,-1.39539 3.32747,-2.14675 1.77107,-0.75137 3.00546,-0.75137 l -0.26835,5.36689 q -2.52243,-0.161 -4.45451,0.96604 -1.87842,1.12705 -2.95179,3.00546 -1.07338,1.87841 -1.07338,4.02517 v 9.98241 h -5.42056 v -22.4336 z"
         style="font-size:53.6689px;font-family:'Reem Kufi';-inkscape-font-specification:'Reem Kufi';fill:#000000"
         id="path10356" />
      <path
         d="m 127.87805,217.55757 q -3.16647,0 -5.74257,-1.34172 -2.57611,-1.34172 -4.07884,-3.91783 -1.50273,-2.62978 -1.50273,-6.49394 0,-3.75682 1.5564,-6.44026 1.61006,-2.73712 4.18617,-4.18618 2.57611,-1.50273 5.68891,-1.50273 3.11279,0 5.15221,1.28806 2.03942,1.23438 3.22013,3.00545 l 0.37569,-3.38114 h 4.9912 v 22.4336 h -5.42056 v -3.54214 q -0.59035,0.75136 -1.77107,1.7174 -1.18071,0.96604 -2.84445,1.66374 -1.66374,0.69769 -3.81049,0.69769 z m 1.44906,-4.45452 q 2.62977,0 4.50819,-1.39539 1.87841,-1.44906 2.46876,-3.91783 v -4.61552 q -0.64402,-2.20043 -2.62977,-3.64949 -1.93208,-1.44906 -4.50819,-1.44906 -1.93208,0 -3.54215,0.96604 -1.61006,0.91237 -2.5761,2.62978 -0.96604,1.66373 -0.96604,3.86416 0,2.14676 0.96604,3.86416 1.01971,1.7174 2.68344,2.73711 1.66374,0.96604 3.59582,0.96604 z"
         style="font-size:53.6689px;font-family:'Reem Kufi';-inkscape-font-specification:'Reem Kufi';fill:#000000"
         id="path10358" />
      <path
         d="m 156.69823,217.5039 q -2.46877,0 -4.72287,-0.8587 -2.25409,-0.91237 -3.81049,-2.57611 l 2.30776,-3.11279 q 1.3954,1.34172 2.89813,2.03942 1.50272,0.69769 2.89812,0.69769 1.55639,0 2.73711,-0.59036 1.18072,-0.64402 1.18072,-2.09308 0,-1.18072 -0.80504,-1.82475 -0.75136,-0.64402 -1.93208,-1.07337 -1.18071,-0.42935 -2.52244,-0.80504 -5.74257,-1.87841 -5.74257,-6.60127 0,-1.71741 0.8587,-3.32747 0.91237,-1.61007 2.68345,-2.57611 1.82474,-1.01971 4.56185,-1.01971 2.36144,0 4.23985,0.59036 1.87841,0.53669 3.48848,1.87841 l -2.09309,3.2738 q -0.96604,-0.96604 -2.30776,-1.44906 -1.28806,-0.53669 -2.36143,-0.59036 -1.44907,0 -2.52244,0.6977 -1.07338,0.64403 -1.07338,1.77107 0,1.18072 0.75136,1.82475 0.75137,0.64402 1.93208,1.07337 1.23439,0.37569 2.46877,0.80504 2.46877,0.80503 4.07884,2.20042 1.66374,1.39539 1.66374,4.07884 0,2.03942 -0.96604,3.75682 -0.96605,1.71741 -2.95179,2.79078 -1.93208,1.01971 -4.93754,1.01971 z"
         style="font-size:53.6689px;font-family:'Reem Kufi';-inkscape-font-specification:'Reem Kufi';fill:#000000"
         id="path10360" />
      <path
         d="m 172.42319,217.02088 v -41.70073 h 5.31322 v 23.23863 q 1.18072,-2.09308 3.43481,-3.43481 2.30777,-1.39539 5.47423,-1.39539 3.1128,0 5.15222,1.87841 2.03941,1.87841 2.14675,4.8302 v 16.58369 h -5.42056 v -14.70527 q -0.0537,-1.71741 -1.01971,-2.79079 -0.96604,-1.12704 -3.00545,-1.18071 -2.84446,0 -4.77654,2.4151 -1.87841,2.36143 -1.87841,6.01091 v 10.25076 z"
         style="font-size:53.6689px;font-family:'Reem Kufi';-inkscape-font-specification:'Reem Kufi';fill:#000000"
         id="path10362" />
      <path
         d="m 203.7658,178.11093 h 5.58156 v 33.48939 h 19.53548 v 5.42056 H 203.7658 Z"
         style="font-size:53.6689px;font-family:'Reem Kufi';-inkscape-font-specification:'Reem Kufi';fill:#000000"
         id="path10364" />
      <path
         d="m 233.2836,217.02088 17.12038,-40.52002 h 0.32201 l 17.12038,40.52002 h -6.49394 l -3.86416,-9.76774 h -14.59794 l -4.02517,9.76774 z m 11.53881,-14.59794 h 10.78745 l -5.25955,-13.41722 z"
         style="font-size:53.6689px;font-family:'Reem Kufi';-inkscape-font-specification:'Reem Kufi';fill:#000000"
         id="path10366" />
      <path
         d="m 308.742,218.36261 -28.33718,-28.28351 0.10734,26.94178 h -5.63523 v -40.14433 h 0.21467 l 28.33718,28.65919 -0.10734,-27.42481 h 5.58157 v 40.25168 z"
         style="font-size:53.6689px;font-family:'Reem Kufi';-inkscape-font-specification:'Reem Kufi';fill:#000000"
         id="path10368" />
      <path
         d="m 319.95871,217.02088 v -38.90995 h 10.78745 q 5.79624,0 9.82141,1.77108 4.02517,1.7174 6.54761,4.66919 2.52243,2.89812 3.64948,6.44027 1.18072,3.54214 1.18072,7.08429 0,4.34718 -1.5564,7.88933 -1.50273,3.48848 -4.23984,5.95725 -2.68345,2.46877 -6.17193,3.81049 -3.48848,1.28805 -7.35264,1.28805 z m 5.58157,-5.42056 h 6.01092 q 4.23984,0 7.51364,-1.61006 3.2738,-1.61007 5.15222,-4.72287 1.93208,-3.11279 1.93208,-7.56731 0,-3.64949 -1.23439,-6.27926 -1.18071,-2.68345 -3.16646,-4.40085 -1.98575,-1.77107 -4.45452,-2.62978 -2.46877,-0.8587 -5.04488,-0.8587 h -6.70861 z"
         style="font-size:53.6689px;font-family:'Reem Kufi';-inkscape-font-specification:'Reem Kufi';fill:#000000"
         id="path10370" />
      <path
         d="m 360.53232,178.11093 h 5.58157 v 38.90995 h -5.58157 z"
         style="font-size:53.6689px;font-family:'Reem Kufi';-inkscape-font-specification:'Reem Kufi';fill:#000000"
         id="path10372" />
      <path
         d="m 411.03473,218.36261 -28.33718,-28.28351 0.10734,26.94178 h -5.63524 v -40.14433 h 0.21468 l 28.33718,28.65919 -0.10734,-27.42481 h 5.58156 v 40.25168 z"
         style="font-size:53.6689px;font-family:'Reem Kufi';-inkscape-font-specification:'Reem Kufi';fill:#000000"
         id="path10374" />
      <path
         d="m 452.89638,213.58607 q -1.07338,0.96604 -3.2738,1.87842 -2.14676,0.8587 -4.72287,1.44906 -2.52243,0.53668 -4.72286,0.53668 -6.22559,0 -10.78745,-2.46876 -4.56185,-2.52244 -7.08429,-6.81595 -2.46877,-4.29352 -2.46877,-9.76774 0,-4.99121 1.5564,-8.85537 1.61006,-3.86416 4.40085,-6.49394 2.79078,-2.62978 6.33293,-3.9715 3.59581,-1.39539 7.62098,-1.39539 3.48848,0 6.44027,0.80503 2.95179,0.80504 5.15221,2.03942 l -1.87841,5.20589 q -1.07338,-0.59036 -2.68345,-1.12705 -1.55639,-0.59036 -3.2738,-0.91237 -1.66373,-0.37569 -3.05913,-0.37569 -4.50818,0 -7.83565,1.77108 -3.32748,1.77107 -5.15222,5.04487 -1.82474,3.27381 -1.82474,7.782 0,4.1325 1.82474,7.29897 1.87841,3.11279 5.15222,4.88387 3.32747,1.77107 7.67465,1.77107 1.93208,0 3.75682,-0.37568 1.87841,-0.37569 3.16647,-1.12705 v -7.19163 h -7.56732 v -5.42056 h 13.25622 z"
         style="font-size:53.6689px;font-family:'Reem Kufi';-inkscape-font-specification:'Reem Kufi';fill:#000000"
         id="path10376" />
    </g>
    <path
       style="opacity:1;fill:#aa0000;fill-opacity:1;stroke:none;stroke-width:0.507"
       id="path1699"
       sodipodi:type="arc"
       sodipodi:cx="198.4375"
       sodipodi:cy="383.64584"
       sodipodi:rx="198.4375"
       sodipodi:ry="13.229167"
       sodipodi:start="3.1415927"
       sodipodi:end="0"
       sodipodi:arc-type="slice"
       d="M 0,383.64584 A 198.4375,13.229167 0 0 1 198.4375,370.41668 198.4375,13.229167 0 0 1 396.875,383.64584 H 198.4375 Z" />
    <rect
       style="opacity:1;fill:#aa0000;fill-opacity:1;stroke:none;stroke-width:0.473766"
       id="rect1859"
       width="396.875"
       height="13.255625"
       x="0"
       y="383.61938" />
    <path
       style="fill:#aa0000;fill-opacity:1;stroke:none;stroke-width:0.474827px;stroke-linecap:butt;stroke-linejoin:miter;stroke-opacity:1"
       d="m 232.80575,356.98141 -4.59223,-1.89222 0.19408,-7.57111 5.66023,-0.94636 4.5583,4.79485 0.74736,5.17375 z"
       id="path7869"
       sodipodi:nodetypes="ccccccc" />
    <path
       style="fill:#aa0000;fill-opacity:1;stroke:none;stroke-width:0.264583px;stroke-linecap:butt;stroke-linejoin:miter;stroke-opacity:1"
       d="m 243.83455,326.24862 -6.94146,3.28141 -0.88346,5.04833 2.9028,2.27174 6.43662,-1.00965 2.14554,-3.40762 -1.38829,-4.03868 z"
       id="path8020" />
    <path
       style="fill:#aa0000;fill-opacity:1;stroke:none;stroke-width:0.264583px;stroke-linecap:butt;stroke-linejoin:miter;stroke-opacity:1"
       d="m 260.24166,342.27708 0.25241,-6.31042 5.30074,-2.27177 6.05801,4.29109 -4.54351,3.78627 -3.78624,1.51448 z"
       id="path8410" />
    <path
       style="fill:#aa0000;fill-opacity:1;stroke:none;stroke-width:0.264583px;stroke-linecap:butt;stroke-linejoin:miter;stroke-opacity:1"
       d="m 253.50295,330.02979 2.10858,-1.25683 3.25342,1.02237 -2.18251,2.53684 -2.56747,-0.34166 z"
       id="path8591"
       sodipodi:nodetypes="cccccc" />
    <path
       style="fill:#aa0000;fill-opacity:1;stroke:none;stroke-width:0.177424px;stroke-linecap:butt;stroke-linejoin:miter;stroke-opacity:1"
       d="m 254.88604,321.83612 -0.7689,-2.79465 1.69158,-2.23574 1.23024,2.23574 -1.07646,1.11786 z"
       id="path8593" />
    <path
       style="fill:#aa0000;fill-opacity:1;stroke:none;stroke-width:0.264583px;stroke-linecap:butt;stroke-linejoin:miter;stroke-opacity:1"
       d="m 268.26381,323.59435 0.80319,-1.96334 1.42788,0.53547 0.44622,0.89241 -0.89244,0.80319 z"
       id="path9987" />
    <path
       style="fill:#aa0000;stroke:none;stroke-width:0.264583px;stroke-linecap:butt;stroke-linejoin:miter;stroke-opacity:1;fill-opacity:1"
       d="m 276.65264,333.58955 0.53547,-1.60637 h 1.16014 l 0.89244,0.98166 -1.4279,1.42788 z"
       id="path9989" />
  </g>
</svg>
